# xmcd
#
# Track frame offsets:
#	150
#	17373
#	35297
#	55302
#	77209
#	98183
#	114318
#	130292
#	149258
#	165948
#
# Disc length: 2477 seconds
#
# Revision: 0
# Processed by: cddbd v1.5.2PL0 Copyright (c) Steve Scherf et al.
# Submitted via: EasyCDDAExtractor 15.3.0.1
#
DISCID=7509ab0a
DTITLE=Ednita Nazario - Al Rojo Vivo
DYEAR=1983
DGENRE=Latin
TTITLE0=Ese Muchacho
TTITLE1=Dicen
TTITLE2=Frente A Ella
TTITLE3=Chico Fisico
TTITLE4=¡Que Va!
TTITLE5=La Prohibida
TTITLE6=Machismo
TTITLE7=Hasta Cuando Y Hasta Donde
TTITLE8=Mi Pequeño Amor
TTITLE9=Mañana
EXTD=
EXTT0=
EXTT1=
EXTT2=
EXTT3=
EXTT4=
EXTT5=
EXTT6=
EXTT7=
EXTT8=
EXTT9=
PLAYORDER=
